<svg width="212" height="448" viewBox="0 0 212 448" fill="none" xmlns="http://www.w3.org/2000/svg">
<path d="M0 0V70" transform="translate(200 375)" stroke="#FF3F3E" stroke-width="5" stroke-linecap="round"/>
<path d="M0 0V229" transform="translate(200 111)" stroke="#FF3F3E" stroke-width="5" stroke-linecap="round"/>
<circle cx="12.5" cy="12.5" r="10" transform="translate(187 345)" stroke="#FF3F3E" stroke-width="5"/>
<path d="M0 0V70" transform="translate(200 3)" stroke="#FF3F3E" stroke-width="5" stroke-linecap="round"/>
<circle cx="12.5" cy="12.5" r="10" transform="translate(187 79)" stroke="#FF3F3E" stroke-width="5"/>
<path d="M28.2385 38.836C28.2385 39.872 27.9585 40.684 27.3985 41.272C26.8478 41.8507 26.0825 42.14 25.1025 42.14C24.2158 42.14 23.5298 41.9253 23.0445 41.496C22.5592 41.0573 22.3165 40.4553 22.3165 39.69C22.3165 39.4193 22.3398 39.172 22.3865 38.948L23.4225 38.738C23.3852 39.0553 23.3665 39.2793 23.3665 39.41C23.3665 39.9793 23.5018 40.404 23.7725 40.684C24.0432 40.9547 24.4725 41.09 25.0605 41.09C25.8258 41.09 26.3578 40.8847 26.6565 40.474C26.9645 40.0633 27.1185 39.424 27.1185 38.556V32.76H28.2385V38.836ZM36.4541 41.188C36.6408 41.188 36.8274 41.1647 37.0141 41.118L36.9441 42C36.6828 42.0933 36.4028 42.14 36.1041 42.14C35.7401 42.14 35.4508 42.0607 35.2361 41.902C35.0308 41.7433 34.9001 41.4773 34.8441 41.104C34.6294 41.4307 34.3121 41.6873 33.8921 41.874C33.4814 42.0513 33.0474 42.14 32.5901 42.14C31.8994 42.14 31.3301 41.9813 30.8821 41.664C30.4341 41.3373 30.2101 40.8707 30.2101 40.264C30.2101 39.732 30.4434 39.2747 30.9101 38.892C31.3768 38.5 32.0534 38.2293 32.9401 38.08L34.8021 37.772V37.38C34.8021 36.9133 34.6574 36.54 34.3681 36.26C34.0788 35.98 33.6774 35.84 33.1641 35.84C32.6974 35.84 32.2914 35.952 31.9461 36.176C31.6101 36.4 31.3488 36.7313 31.1621 37.17L30.3361 36.568C30.5228 36.0453 30.8681 35.63 31.3721 35.322C31.8854 35.014 32.4828 34.86 33.1641 34.86C33.9948 34.86 34.6621 35.0607 35.1661 35.462C35.6701 35.8633 35.9221 36.456 35.9221 37.24V40.684C35.9221 40.852 35.9641 40.978 36.0481 41.062C36.1321 41.146 36.2674 41.188 36.4541 41.188ZM32.6461 41.16C33.2341 41.16 33.7381 41.02 34.1581 40.74C34.5874 40.46 34.8021 40.096 34.8021 39.648V38.682L33.2341 38.976C32.6088 39.088 32.1421 39.2513 31.8341 39.466C31.5261 39.6713 31.3721 39.9373 31.3721 40.264C31.3721 40.5533 31.4841 40.7773 31.7081 40.936C31.9321 41.0853 32.2448 41.16 32.6461 41.16ZM42.0458 34.86C42.8391 34.86 43.4925 35.0887 44.0058 35.546C44.5191 36.0033 44.7758 36.6613 44.7758 37.52V42H43.6558V37.912C43.6558 37.184 43.4971 36.6567 43.1798 36.33C42.8718 36.0033 42.4565 35.84 41.9338 35.84C41.5605 35.84 41.2105 35.924 40.8838 36.092C40.5571 36.2507 40.2865 36.5167 40.0718 36.89C39.8665 37.254 39.7638 37.716 39.7638 38.276V42H38.6438V35H39.6238L39.6938 36.092C39.9271 35.672 40.2491 35.364 40.6598 35.168C41.0705 34.9627 41.5325 34.86 42.0458 34.86ZM53.3738 35V42H52.3938L52.3238 40.936C51.8571 41.7387 51.0218 42.14 49.8178 42.14C49.0618 42.14 48.4411 41.93 47.9558 41.51C47.4798 41.09 47.2418 40.446 47.2418 39.578V35H48.3618V39.284C48.3618 39.9653 48.5018 40.4507 48.7818 40.74C49.0618 41.02 49.4724 41.16 50.0138 41.16C50.6578 41.16 51.1898 40.964 51.6098 40.572C52.0391 40.18 52.2538 39.592 52.2538 38.808V35H53.3738ZM61.7197 41.188C61.9064 41.188 62.0931 41.1647 62.2797 41.118L62.2097 42C61.9484 42.0933 61.6684 42.14 61.3697 42.14C61.0057 42.14 60.7164 42.0607 60.5017 41.902C60.2964 41.7433 60.1657 41.4773 60.1097 41.104C59.8951 41.4307 59.5777 41.6873 59.1577 41.874C58.7471 42.0513 58.3131 42.14 57.8557 42.14C57.1651 42.14 56.5957 41.9813 56.1477 41.664C55.6997 41.3373 55.4757 40.8707 55.4757 40.264C55.4757 39.732 55.7091 39.2747 56.1757 38.892C56.6424 38.5 57.3191 38.2293 58.2057 38.08L60.0677 37.772V37.38C60.0677 36.9133 59.9231 36.54 59.6337 36.26C59.3444 35.98 58.9431 35.84 58.4297 35.84C57.9631 35.84 57.5571 35.952 57.2117 36.176C56.8757 36.4 56.6144 36.7313 56.4277 37.17L55.6017 36.568C55.7884 36.0453 56.1337 35.63 56.6377 35.322C57.1511 35.014 57.7484 34.86 58.4297 34.86C59.2604 34.86 59.9277 35.0607 60.4317 35.462C60.9357 35.8633 61.1877 36.456 61.1877 37.24V40.684C61.1877 40.852 61.2297 40.978 61.3137 41.062C61.3977 41.146 61.5331 41.188 61.7197 41.188ZM57.9117 41.16C58.4997 41.16 59.0037 41.02 59.4237 40.74C59.8531 40.46 60.0677 40.096 60.0677 39.648V38.682L58.4997 38.976C57.8744 39.088 57.4077 39.2513 57.0997 39.466C56.7917 39.6713 56.6377 39.9373 56.6377 40.264C56.6377 40.5533 56.7497 40.7773 56.9737 40.936C57.1977 41.0853 57.5104 41.16 57.9117 41.16ZM67.2134 34.86C67.5494 34.86 67.8061 34.9067 67.9834 35L67.7594 36.092C67.5354 35.9707 67.2414 35.91 66.8774 35.91C66.5788 35.91 66.2848 35.9987 65.9954 36.176C65.7154 36.344 65.4821 36.6053 65.2954 36.96C65.1181 37.3053 65.0294 37.7253 65.0294 38.22V42H63.9094V35H64.8194L64.9734 36.148C65.3654 35.2893 66.1121 34.86 67.2134 34.86ZM72.2843 43.176C72.0136 43.848 71.7103 44.3193 71.3743 44.59C71.0383 44.87 70.6043 45.01 70.0723 45.01C69.7176 45.01 69.4189 44.9633 69.1763 44.87C68.9429 44.7767 68.7283 44.6273 68.5323 44.422L68.9243 43.47C69.1949 43.8433 69.5729 44.03 70.0583 44.03C70.3289 44.03 70.5669 43.946 70.7723 43.778C70.9869 43.6193 71.1736 43.3253 71.3323 42.896L71.6963 41.986L68.7703 35H70.0443L71.7943 39.564L72.2283 40.81L72.7323 39.424L74.3703 35H75.5743L72.2843 43.176ZM86.1105 38.92H81.4905V37.758H86.1105V38.92ZM102.583 42H101.519V36.19L101.645 33.754H101.631L98.5927 42H97.6407L94.6027 33.754H94.5887L94.7147 36.19V42H93.6507V32.76H95.3727L97.4027 38.374L98.1027 40.684H98.1307L98.8447 38.388L100.861 32.76H102.583V42ZM111.048 41.188C111.235 41.188 111.421 41.1647 111.608 41.118L111.538 42C111.277 42.0933 110.997 42.14 110.698 42.14C110.334 42.14 110.045 42.0607 109.83 41.902C109.625 41.7433 109.494 41.4773 109.438 41.104C109.223 41.4307 108.906 41.6873 108.486 41.874C108.075 42.0513 107.641 42.14 107.184 42.14C106.493 42.14 105.924 41.9813 105.476 41.664C105.028 41.3373 104.804 40.8707 104.804 40.264C104.804 39.732 105.037 39.2747 105.504 38.892C105.971 38.5 106.647 38.2293 107.534 38.08L109.396 37.772V37.38C109.396 36.9133 109.251 36.54 108.962 36.26C108.673 35.98 108.271 35.84 107.758 35.84C107.291 35.84 106.885 35.952 106.54 36.176C106.204 36.4 105.943 36.7313 105.756 37.17L104.93 36.568C105.117 36.0453 105.462 35.63 105.966 35.322C106.479 35.014 107.077 34.86 107.758 34.86C108.589 34.86 109.256 35.0607 109.76 35.462C110.264 35.8633 110.516 36.456 110.516 37.24V40.684C110.516 40.852 110.558 40.978 110.642 41.062C110.726 41.146 110.861 41.188 111.048 41.188ZM107.24 41.16C107.828 41.16 108.332 41.02 108.752 40.74C109.181 40.46 109.396 40.096 109.396 39.648V38.682L107.828 38.976C107.203 39.088 106.736 39.2513 106.428 39.466C106.12 39.6713 105.966 39.9373 105.966 40.264C105.966 40.5533 106.078 40.7773 106.302 40.936C106.526 41.0853 106.839 41.16 107.24 41.16ZM116.542 34.86C116.878 34.86 117.134 34.9067 117.312 35L117.088 36.092C116.864 35.9707 116.57 35.91 116.206 35.91C115.907 35.91 115.613 35.9987 115.324 36.176C115.044 36.344 114.81 36.6053 114.624 36.96C114.446 37.3053 114.358 37.7253 114.358 38.22V42H113.238V35H114.148L114.302 36.148C114.694 35.2893 115.44 34.86 116.542 34.86ZM121.688 34.86C122.388 34.86 122.976 35.0233 123.452 35.35C123.937 35.6673 124.315 36.1247 124.586 36.722L123.522 37.226C123.223 36.302 122.602 35.84 121.66 35.84C120.96 35.84 120.409 36.078 120.008 36.554C119.616 37.0207 119.42 37.6693 119.42 38.5C119.42 39.3307 119.616 39.984 120.008 40.46C120.409 40.9267 120.96 41.16 121.66 41.16C122.201 41.16 122.635 41.0387 122.962 40.796C123.298 40.544 123.517 40.1847 123.62 39.718L124.656 40.082C124.413 40.7353 124.04 41.244 123.536 41.608C123.032 41.9627 122.416 42.14 121.688 42.14C120.633 42.14 119.802 41.818 119.196 41.174C118.598 40.53 118.3 39.6387 118.3 38.5C118.3 37.3613 118.598 36.47 119.196 35.826C119.802 35.182 120.633 34.86 121.688 34.86ZM130.038 34.86C130.831 34.86 131.485 35.0887 131.998 35.546C132.511 36.0033 132.768 36.6613 132.768 37.52V42H131.648V37.912C131.648 37.184 131.489 36.6567 131.172 36.33C130.864 36.0033 130.449 35.84 129.926 35.84C129.562 35.84 129.212 35.924 128.876 36.092C128.549 36.26 128.279 36.5307 128.064 36.904C127.859 37.268 127.756 37.73 127.756 38.29V42H126.636V31.78H127.756V36.05C127.989 35.6487 128.302 35.35 128.694 35.154C129.095 34.958 129.543 34.86 130.038 34.86ZM139.809 41.09C141.088 40.1473 142.068 39.3727 142.749 38.766C143.431 38.15 143.916 37.5947 144.205 37.1C144.504 36.596 144.653 36.0687 144.653 35.518C144.653 34.9673 144.476 34.524 144.121 34.188C143.767 33.8427 143.291 33.67 142.693 33.67C142.068 33.67 141.559 33.8753 141.167 34.286C140.785 34.6967 140.561 35.252 140.495 35.952L139.515 35.364C139.637 34.5333 139.973 33.8707 140.523 33.376C141.083 32.872 141.821 32.62 142.735 32.62C143.351 32.62 143.893 32.7413 144.359 32.984C144.835 33.2267 145.199 33.5673 145.451 34.006C145.703 34.4447 145.829 34.9487 145.829 35.518C145.829 36.1153 145.685 36.6893 145.395 37.24C145.115 37.7907 144.653 38.3693 144.009 38.976C143.365 39.5827 142.497 40.25 141.405 40.978V40.992C142.021 40.964 142.483 40.95 142.791 40.95H146.025V42H139.809V41.09ZM151.29 42.14C150.17 42.14 149.316 41.734 148.728 40.922C148.14 40.11 147.846 38.9293 147.846 37.38C147.846 35.8307 148.14 34.65 148.728 33.838C149.316 33.026 150.17 32.62 151.29 32.62C152.41 32.62 153.264 33.026 153.852 33.838C154.44 34.65 154.734 35.8307 154.734 37.38C154.734 38.9293 154.44 40.11 153.852 40.922C153.264 41.734 152.41 42.14 151.29 42.14ZM151.29 41.132C152.027 41.132 152.592 40.8147 152.984 40.18C153.376 39.536 153.572 38.6027 153.572 37.38C153.572 36.1573 153.376 35.2287 152.984 34.594C152.592 33.95 152.027 33.628 151.29 33.628C150.552 33.628 149.988 33.95 149.596 34.594C149.204 35.2287 149.008 36.1573 149.008 37.38C149.008 38.6027 149.204 39.536 149.596 40.18C149.988 40.8147 150.552 41.132 151.29 41.132ZM159.943 32.76V42H158.823V35.224C158.823 35.028 158.832 34.6687 158.851 34.146C158.533 34.454 158.165 34.7247 157.745 34.958C157.325 35.182 156.895 35.3453 156.457 35.448L156.163 34.426C156.387 34.398 156.69 34.2953 157.073 34.118C157.455 33.9313 157.824 33.7167 158.179 33.474C158.533 33.222 158.795 32.984 158.963 32.76H159.943ZM165.685 32.634C166.581 32.634 167.295 32.8533 167.827 33.292C168.359 33.7213 168.625 34.3093 168.625 35.056C168.625 35.532 168.508 35.952 168.275 36.316C168.051 36.6707 167.734 36.9413 167.323 37.128V37.142C167.864 37.3473 168.284 37.6507 168.583 38.052C168.891 38.4533 169.045 38.9387 169.045 39.508C169.045 40.04 168.905 40.5067 168.625 40.908C168.354 41.3 167.962 41.6033 167.449 41.818C166.945 42.0327 166.357 42.14 165.685 42.14C165.013 42.14 164.425 42.0327 163.921 41.818C163.417 41.6033 163.025 41.3 162.745 40.908C162.465 40.5067 162.325 40.04 162.325 39.508C162.325 38.948 162.474 38.4627 162.773 38.052C163.081 37.6413 163.51 37.338 164.061 37.142V37.128C163.65 36.9507 163.328 36.68 163.095 36.316C162.862 35.952 162.745 35.532 162.745 35.056C162.745 34.3093 163.011 33.7213 163.543 33.292C164.075 32.8533 164.789 32.634 165.685 32.634ZM165.685 33.684C165.134 33.684 164.7 33.8147 164.383 34.076C164.066 34.3373 163.907 34.7013 163.907 35.168C163.907 35.616 164.07 35.9753 164.397 36.246C164.724 36.5073 165.153 36.638 165.685 36.638C166.217 36.638 166.646 36.5073 166.973 36.246C167.3 35.9753 167.463 35.616 167.463 35.168C167.463 34.7013 167.304 34.3373 166.987 34.076C166.67 33.8147 166.236 33.684 165.685 33.684ZM165.685 41.09C166.366 41.09 166.903 40.9407 167.295 40.642C167.687 40.334 167.883 39.9187 167.883 39.396C167.883 38.864 167.682 38.4487 167.281 38.15C166.889 37.842 166.357 37.688 165.685 37.688C165.022 37.688 164.49 37.842 164.089 38.15C163.688 38.458 163.487 38.8733 163.487 39.396C163.487 39.9187 163.683 40.334 164.075 40.642C164.476 40.9407 165.013 41.09 165.685 41.09Z" transform="translate(0 55)" fill="#4F4F4F"/>
<path d="M59.4752 42H58.4113V36.19L58.5373 33.754H58.5232L55.4852 42H54.5333L51.4952 33.754H51.4812L51.6073 36.19V42H50.5433V32.76H52.2653L54.2952 38.374L54.9952 40.684H55.0233L55.7373 38.388L57.7533 32.76H59.4752V42ZM67.9404 41.188C68.1271 41.188 68.3138 41.1647 68.5004 41.118L68.4304 42C68.1691 42.0933 67.8891 42.14 67.5904 42.14C67.2264 42.14 66.9371 42.0607 66.7224 41.902C66.5171 41.7433 66.3864 41.4773 66.3304 41.104C66.1158 41.4307 65.7984 41.6873 65.3784 41.874C64.9678 42.0513 64.5338 42.14 64.0764 42.14C63.3858 42.14 62.8164 41.9813 62.3684 41.664C61.9204 41.3373 61.6964 40.8707 61.6964 40.264C61.6964 39.732 61.9298 39.2747 62.3964 38.892C62.8631 38.5 63.5398 38.2293 64.4264 38.08L66.2884 37.772V37.38C66.2884 36.9133 66.1438 36.54 65.8544 36.26C65.5651 35.98 65.1638 35.84 64.6504 35.84C64.1838 35.84 63.7778 35.952 63.4324 36.176C63.0964 36.4 62.8351 36.7313 62.6484 37.17L61.8224 36.568C62.0091 36.0453 62.3544 35.63 62.8584 35.322C63.3718 35.014 63.9691 34.86 64.6504 34.86C65.4811 34.86 66.1484 35.0607 66.6524 35.462C67.1564 35.8633 67.4084 36.456 67.4084 37.24V40.684C67.4084 40.852 67.4504 40.978 67.5344 41.062C67.6184 41.146 67.7538 41.188 67.9404 41.188ZM64.1324 41.16C64.7204 41.16 65.2244 41.02 65.6444 40.74C66.0738 40.46 66.2884 40.096 66.2884 39.648V38.682L64.7204 38.976C64.0951 39.088 63.6284 39.2513 63.3204 39.466C63.0124 39.6713 62.8584 39.9373 62.8584 40.264C62.8584 40.5533 62.9704 40.7773 63.1944 40.936C63.4184 41.0853 63.7311 41.16 64.1324 41.16ZM73.4341 34.86C73.7701 34.86 74.0268 34.9067 74.2041 35L73.9801 36.092C73.7561 35.9707 73.4621 35.91 73.0981 35.91C72.7995 35.91 72.5055 35.9987 72.2161 36.176C71.9361 36.344 71.7028 36.6053 71.5161 36.96C71.3388 37.3053 71.2501 37.7253 71.2501 38.22V42H70.1301V35H71.0401L71.1941 36.148C71.5861 35.2893 72.3328 34.86 73.4341 34.86ZM78.5802 34.86C79.2802 34.86 79.8682 35.0233 80.3442 35.35C80.8296 35.6673 81.2076 36.1247 81.4782 36.722L80.4142 37.226C80.1156 36.302 79.4949 35.84 78.5522 35.84C77.8522 35.84 77.3016 36.078 76.9002 36.554C76.5082 37.0207 76.3122 37.6693 76.3122 38.5C76.3122 39.3307 76.5082 39.984 76.9002 40.46C77.3016 40.9267 77.8522 41.16 78.5522 41.16C79.0936 41.16 79.5276 41.0387 79.8542 40.796C80.1902 40.544 80.4096 40.1847 80.5122 39.718L81.5482 40.082C81.3056 40.7353 80.9322 41.244 80.4282 41.608C79.9242 41.9627 79.3082 42.14 78.5802 42.14C77.5256 42.14 76.6949 41.818 76.0882 41.174C75.4909 40.53 75.1922 39.6387 75.1922 38.5C75.1922 37.3613 75.4909 36.47 76.0882 35.826C76.6949 35.182 77.5256 34.86 78.5802 34.86ZM86.9306 34.86C87.7239 34.86 88.3772 35.0887 88.8906 35.546C89.4039 36.0033 89.6606 36.6613 89.6606 37.52V42H88.5406V37.912C88.5406 37.184 88.3819 36.6567 88.0646 36.33C87.7566 36.0033 87.3412 35.84 86.8186 35.84C86.4546 35.84 86.1046 35.924 85.7686 36.092C85.4419 36.26 85.1712 36.5307 84.9566 36.904C84.7512 37.268 84.6486 37.73 84.6486 38.29V42H83.5286V31.78H84.6486V36.05C84.8819 35.6487 85.1946 35.35 85.5866 35.154C85.9879 34.958 86.4359 34.86 86.9306 34.86ZM101.546 38.92H96.926V37.758H101.546V38.92ZM113.742 38.836C113.742 39.872 113.462 40.684 112.902 41.272C112.352 41.8507 111.586 42.14 110.606 42.14C109.72 42.14 109.034 41.9253 108.548 41.496C108.063 41.0573 107.82 40.4553 107.82 39.69C107.82 39.4193 107.844 39.172 107.89 38.948L108.926 38.738C108.889 39.0553 108.87 39.2793 108.87 39.41C108.87 39.9793 109.006 40.404 109.276 40.684C109.547 40.9547 109.976 41.09 110.564 41.09C111.33 41.09 111.862 40.8847 112.16 40.474C112.468 40.0633 112.622 39.424 112.622 38.556V32.76H113.742V38.836ZM122.417 35V42H121.437L121.367 40.936C120.9 41.7387 120.065 42.14 118.861 42.14C118.105 42.14 117.484 41.93 116.999 41.51C116.523 41.09 116.285 40.446 116.285 39.578V35H117.405V39.284C117.405 39.9653 117.545 40.4507 117.825 40.74C118.105 41.02 118.515 41.16 119.057 41.16C119.701 41.16 120.233 40.964 120.653 40.572C121.082 40.18 121.297 39.592 121.297 38.808V35H122.417ZM126.087 40.124C126.087 40.4787 126.138 40.726 126.241 40.866C126.353 40.9967 126.553 41.062 126.843 41.062C127.039 41.062 127.207 41.048 127.347 41.02C127.496 40.992 127.669 40.9407 127.865 40.866L127.683 41.944C127.375 42.0747 127.029 42.14 126.647 42.14C126.077 42.14 125.653 41.986 125.373 41.678C125.102 41.37 124.967 40.8987 124.967 40.264V31.78H126.087V40.124ZM131.607 43.176C131.336 43.848 131.033 44.3193 130.697 44.59C130.361 44.87 129.927 45.01 129.395 45.01C129.04 45.01 128.741 44.9633 128.499 44.87C128.265 44.7767 128.051 44.6273 127.855 44.422L128.247 43.47C128.517 43.8433 128.895 44.03 129.381 44.03C129.651 44.03 129.889 43.946 130.095 43.778C130.309 43.6193 130.496 43.3253 130.655 42.896L131.019 41.986L128.093 35H129.367L131.117 39.564L131.551 40.81L132.055 39.424L133.693 35H134.897L131.607 43.176ZM140.589 41.09C141.867 40.1473 142.847 39.3727 143.529 38.766C144.21 38.15 144.695 37.5947 144.985 37.1C145.283 36.596 145.433 36.0687 145.433 35.518C145.433 34.9673 145.255 34.524 144.901 34.188C144.546 33.8427 144.07 33.67 143.473 33.67C142.847 33.67 142.339 33.8753 141.947 34.286C141.564 34.6967 141.34 35.252 141.275 35.952L140.295 35.364C140.416 34.5333 140.752 33.8707 141.303 33.376C141.863 32.872 142.6 32.62 143.515 32.62C144.131 32.62 144.672 32.7413 145.139 32.984C145.615 33.2267 145.979 33.5673 146.231 34.006C146.483 34.4447 146.609 34.9487 146.609 35.518C146.609 36.1153 146.464 36.6893 146.175 37.24C145.895 37.7907 145.433 38.3693 144.789 38.976C144.145 39.5827 143.277 40.25 142.185 40.978V40.992C142.801 40.964 143.263 40.95 143.571 40.95H146.805V42H140.589V41.09ZM152.069 42.14C150.949 42.14 150.095 41.734 149.507 40.922C148.919 40.11 148.625 38.9293 148.625 37.38C148.625 35.8307 148.919 34.65 149.507 33.838C150.095 33.026 150.949 32.62 152.069 32.62C153.189 32.62 154.043 33.026 154.631 33.838C155.219 34.65 155.513 35.8307 155.513 37.38C155.513 38.9293 155.219 40.11 154.631 40.922C154.043 41.734 153.189 42.14 152.069 42.14ZM152.069 41.132C152.806 41.132 153.371 40.8147 153.763 40.18C154.155 39.536 154.351 38.6027 154.351 37.38C154.351 36.1573 154.155 35.2287 153.763 34.594C153.371 33.95 152.806 33.628 152.069 33.628C151.332 33.628 150.767 33.95 150.375 34.594C149.983 35.2287 149.787 36.1573 149.787 37.38C149.787 38.6027 149.983 39.536 150.375 40.18C150.767 40.8147 151.332 41.132 152.069 41.132ZM160.722 32.76V42H159.602V35.224C159.602 35.028 159.611 34.6687 159.63 34.146C159.312 34.454 158.944 34.7247 158.524 34.958C158.104 35.182 157.674 35.3453 157.236 35.448L156.942 34.426C157.166 34.398 157.469 34.2953 157.852 34.118C158.234 33.9313 158.603 33.7167 158.958 33.474C159.312 33.222 159.574 32.984 159.742 32.76H160.722ZM169.516 32.76V33.81C168.368 35.014 167.528 36.2833 166.996 37.618C166.474 38.9527 166.212 40.4133 166.212 42H165.064C165.064 40.488 165.335 39.0367 165.876 37.646C166.427 36.246 167.234 34.9673 168.298 33.81H162.712V32.76H169.516Z" transform="translate(0 321)" fill="#4F4F4F"/>
</svg>
